<svg width="1669" height="855" viewBox="0 0 1669 855" fill="none" xmlns="http://www.w3.org/2000/svg">
<g clip-path="url(#clip0_11_140)">
<rect width="1669" height="855" fill="#181818"/>
<line x1="-400.133" y1="369.776" x2="499.867" y2="1007.78" stroke="#1F1F1F" stroke-width="3"/>
<line x1="-331.116" y1="369.788" x2="521.884" y2="991.788" stroke="#1F1F1F" stroke-width="3"/>
<line x1="-314.099" y1="343.801" x2="521.901" y2="971.801" stroke="#1F1F1F" stroke-width="3"/>
<line x1="-296.714" y1="318.058" x2="530.274" y2="957.879" stroke="#1F1F1F" stroke-width="3"/>
<line x1="-278.965" y1="292.565" x2="538.844" y2="944.078" stroke="#1F1F1F" stroke-width="3"/>
<line x1="-260.855" y1="267.327" x2="547.609" y2="930.4" stroke="#1F1F1F" stroke-width="3"/>
<line x1="-242.389" y1="242.349" x2="556.568" y2="916.847" stroke="#1F1F1F" stroke-width="3"/>
<line x1="-223.569" y1="217.635" x2="565.718" y2="903.424" stroke="#1F1F1F" stroke-width="3"/>
<line x1="-204.4" y1="193.192" x2="575.059" y2="890.132" stroke="#1F1F1F" stroke-width="3"/>
<line x1="-184.885" y1="169.024" x2="584.587" y2="876.974" stroke="#1F1F1F" stroke-width="3"/>
<line x1="-165.03" y1="145.135" x2="784.03" y2="1040.91" stroke="#1F1F1F" stroke-width="3"/>
<line x1="-144.837" y1="121.53" x2="792.731" y2="1029.32" stroke="#1F1F1F" stroke-width="3"/>
<line x1="-124.346" y1="98.1836" x2="801.58" y2="1017.85" stroke="#1F1F1F" stroke-width="3"/>
<line x1="-103.558" y1="75.1007" x2="810.574" y2="1006.49" stroke="#1F1F1F" stroke-width="3"/>
<line x1="-82.4787" y1="52.2846" x2="819.713" y2="995.247" stroke="#1F1F1F" stroke-width="3"/>
<line x1="-61.1101" y1="29.7388" x2="828.993" y2="984.12" stroke="#1F1F1F" stroke-width="3"/>
<line x1="-39.4563" y1="7.46641" x2="702.109" y2="821.99" stroke="#1F1F1F" stroke-width="3"/>
<line x1="-17.5192" y1="-14.5264" x2="671.123" y2="763.005" stroke="#1F1F1F" stroke-width="3"/>
<line x1="4.69835" y1="-36.2358" x2="645.138" y2="710.023" stroke="#1F1F1F" stroke-width="3"/>
<line x1="27.1857" y1="-57.666" x2="645.149" y2="678.035" stroke="#1F1F1F" stroke-width="3"/>
<line x1="51.1572" y1="-71.9544" x2="642.372" y2="644.901" stroke="#1F1F1F" stroke-width="3"/>
<line x1="639.625" y1="644.548" x2="1693.63" y2="372.548" stroke="#1F1F1F" stroke-width="3"/>
<line x1="643.688" y1="677.533" x2="1693.69" y2="454.533" stroke="#1F1F1F" stroke-width="3"/>
<line x1="643.757" y1="709.52" x2="1674.76" y2="540.52" stroke="#1F1F1F" stroke-width="3"/>
<line x1="668.831" y1="761.51" x2="1698.83" y2="644.51" stroke="#1F1F1F" stroke-width="3"/>
<line x1="698.915" y1="820.502" x2="1743.92" y2="761.502" stroke="#1F1F1F" stroke-width="3"/>
</g>
<defs>
<clipPath id="clip0_11_140">
<rect width="1669" height="855" fill="white"/>
</clipPath>
</defs>
</svg>
